<svg>
  <svg
    id="cart"
    xmlns="http://www.w3.org/2000/svg"
    width="100%"
    heighth="100%"
    fill="none"
    viewBox="0 0 24 24"
    stroke="currentColor"
    stroke-linecap="round"
    stroke-linejoin="round"
    stroke-width="2"
  >
    <path d="M16 11V7a4 4 0 00-8 0v4M5 9h14l1 12H4L5 9z"/>
  </svg>
  <svg
    id="photograph"
    xmlns="http://www.w3.org/2000/svg"
    width="100%"
    heighth="100%"
    fill="none"
    viewBox="0 0 24 24"
    stroke="currentColor"
    stroke-linecap="round"
    stroke-linejoin="round"
    stroke-width="2"
  >
    <path d="M4 16l4.586-4.586a2 2 0 012.828 0L16 16m-2-2l1.586-1.586a2 2 0 012.828 0L20 14m-6-6h.01M6 20h12a2 2 0 002-2V6a2 2 0 00-2-2H6a2 2 0 00-2 2v12a2 2 0 002 2z" />
  </svg>
  <svg
    id="x"
    width="100%"
    height="100%"
    viewBox="0 0 24 24"
    stroke="currentColor"
    stroke-width="2"
    stroke-linecap="round"
    stroke-linejoin="round"
    fill="none"
    xmlns="http://www.w3.org/2000/svg"
    >
    <path d="M6 18L18 6M6 6l12 12" />
  </svg>
</svg>