<svg>
  <svg
    id="cart"
    xmlns="http://www.w3.org/2000/svg"
    width="100%"
    heighth="100%"
    fill="none"
    viewBox="0 0 24 24"
    stroke="currentColor"
    stroke-linecap="round"
    stroke-linejoin="round"
    stroke-width="2"
  >
    <path d="M16 11V7a4 4 0 00-8 0v4M5 9h14l1 12H4L5 9z"/>
  </svg>
  <svg
    id="photograph"
    xmlns="http://www.w3.org/2000/svg"
    width="100%"
    heighth="100%"
    fill="none"
    viewBox="0 0 24 24"
    stroke="currentColor"
    stroke-linecap="round"
    stroke-linejoin="round"
    stroke-width="2"
  >
    <path d="M4 16l4.586-4.586a2 2 0 012.828 0L16 16m-2-2l1.586-1.586a2 2 0 012.828 0L20 14m-6-6h.01M6 20h12a2 2 0 002-2V6a2 2 0 00-2-2H6a2 2 0 00-2 2v12a2 2 0 002 2z" />
  </svg>
  <svg
    id="x"
    width="100%"
    height="100%"
    viewBox="0 0 24 24"
    stroke="currentColor"
    stroke-width="2"
    stroke-linecap="round"
    stroke-linejoin="round"
    fill="none"
    xmlns="http://www.w3.org/2000/svg"
    >
    <path d="M6 18L18 6M6 6l12 12" />
  </svg>
  <svg
    id="arrow-left"
    xmlns="http://www.w3.org/2000/svg"
    width="100%"
    heighth="100%"
    fill="none"
    viewBox="0 0 24 24"
    stroke="currentColor"
    stroke-linecap="round"
    stroke-linejoin="round"
    stroke-width="2"
    >
    <path d="M11 17l-5-5m0 0l5-5m-5 5h12" />
  </svg>  

  <svg 
    id="heart"
    width="100%"
    heighth="100%"
    xmlns="http://www.w3.org/2000/svg" 
    viewBox="0 0 20 20" 
    stroke-linecap="round"
    stroke-linejoin="round"
    fill="currentColor"
    >
    <path fill-rule="evenodd" d="M3.172 5.172a4 4 0 015.656 0L10 6.343l1.172-1.171a4 4 0 115.656 5.656L10 17.657l-6.828-6.829a4 4 0 010-5.656z" clip-rule="evenodd" />
  </svg>
  <svg
    id="truck"
    xmlns="http://www.w3.org/2000/svg"
    width="100%"
    heighth="100%"
    fill="none"
    viewBox="0 0 24 24"
    stroke="currentColor"
    stroke-linecap="round"
    stroke-linejoin="round"
    stroke-width="2"
  >
    <path d="M13 16V6a1 1 0 00-1-1H4a1 1 0 00-1 1v10a1 1 0 001 1h1m8-1a1 1 0 01-1 1H9m4-1V8a1 1 0 011-1h2.586a1 1 0 01.707.293l3.414 3.414a1 1 0 01.293.707V16a1 1 0 01-1 1h-1m-6-1a1 1 0 001 1h1M5 17a2 2 0 104 0m-4 0a2 2 0 114 0m6 0a2 2 0 104 0m-4 0a2 2 0 114 0" />
  </svg>
</svg>
